<svg xmlns="http://www.w3.org/2000/svg" viewBox="0 0 32 32" width="32" height="32">
  <defs>
    <linearGradient id="mangoGrad" x1="0%" y1="0%" x2="100%" y2="100%">
      <stop offset="0%" style="stop-color:#fbbf24;stop-opacity:1" />
      <stop offset="50%" style="stop-color:#f59e0b;stop-opacity:1" />
      <stop offset="100%" style="stop-color:#d97706;stop-opacity:1" />
    </linearGradient>
  </defs>
  <path d="M16 2c-2 0-4 1-5 3-1 2-1 4 0 6l-1 1c-2 2-2 5 0 7s5 2 7 0l1-1c2 1 4 1 6 0 2-1 3-3 3-5 0-2-1-4-3-5-2-1-4-1-6 0l-1-1c-1-2-3-3-5-3z" fill="url(#mangoGrad)" stroke="#d97706" stroke-width="0.5"/>
  <ellipse cx="14" cy="8" rx="2" ry="1.5" fill="#fef3c7" opacity="0.6"/>
</svg>
