<svg xmlns="http://www.w3.org/2000/svg" viewBox="0 0 800 420" fill="none">
  <defs>
    <linearGradient id="bg" x1="0" y1="0" x2="800" y2="420" gradientUnits="userSpaceOnUse">
      <stop stop-color="#FFFFFF"/>
      <stop offset="1" stop-color="#FFF7E6"/>
    </linearGradient>
    <linearGradient id="pin" x1="340" y1="140" x2="460" y2="260" gradientUnits="userSpaceOnUse">
      <stop stop-color="#FFB020"/>
      <stop offset="1" stop-color="#FF7A18"/>
    </linearGradient>
  </defs>
  <rect width="800" height="420" rx="32" fill="url(#bg)"/>
  <path d="M470 84c-36-26-74-18-100 20-14 20-18 42-14 66 4 26-6 46-16 68-10 22-10 48 10 66 22 20 50 14 70-6 12-12 22-26 30-42 10-20 28-34 46-46 22-14 38-34 42-60 6-32-6-56-38-66-14-4-26-4-30 0Z" fill="#19B45B" fill-opacity="0.14"/>
  <path d="M400 140c28 0 50 22 50 50 0 44-50 96-50 96s-50-52-50-96c0-28 22-50 50-50Z" fill="url(#pin)"/>
  <circle cx="400" cy="190" r="18" fill="#fff" fill-opacity="0.9"/>
</svg>
