<svg xmlns="http://www.w3.org/2000/svg" viewBox="0 0 256 256" fill="none">
  <defs>
    <linearGradient id="truck" x1="40" y1="92" x2="216" y2="206" gradientUnits="userSpaceOnUse">
      <stop stop-color="#19B45B"/>
      <stop offset="1" stop-color="#0B7D44"/>
    </linearGradient>
    <linearGradient id="m" x1="56" y1="44" x2="140" y2="156" gradientUnits="userSpaceOnUse">
      <stop stop-color="#FFE46B"/>
      <stop offset="0.6" stop-color="#FFB020"/>
      <stop offset="1" stop-color="#FF7A18"/>
    </linearGradient>
  </defs>
  <path d="M30 152c0-18 14-32 32-32h98c18 0 32 14 32 32v18H30v-18Z" fill="url(#truck)" fill-opacity="0.9"/>
  <path d="M192 136h18c10 0 16 6 16 16v18h-34v-34Z" fill="url(#truck)"/>
  <circle cx="76" cy="188" r="16" fill="#111" fill-opacity="0.25"/>
  <circle cx="76" cy="188" r="8" fill="#fff" fill-opacity="0.75"/>
  <circle cx="194" cy="188" r="16" fill="#111" fill-opacity="0.25"/>
  <circle cx="194" cy="188" r="8" fill="#fff" fill-opacity="0.75"/>
  <path d="M132 92c-5-30-28-46-50-43-20 3-36 18-40 41-4 23 9 46 26 56 14 8 30 6 41-5 17-13 27-34 23-49Z" fill="url(#m)"/>
  <path d="M150 74h18" stroke="#fff" stroke-opacity="0.7" stroke-width="10" stroke-linecap="round"/>
</svg>
